<?xml version="1.0" encoding="UTF-8"?>
<svg xmlns="http://www.w3.org/2000/svg" viewBox="0 0 512 512" role="img" aria-label="BoonBuy Finds">
  <defs>
    <linearGradient id="bag" x1="96" y1="64" x2="416" y2="464" gradientUnits="userSpaceOnUse">
      <stop offset="0%" stop-color="#ff9a3d"/>
      <stop offset="55%" stop-color="#ff8000"/>
      <stop offset="100%" stop-color="#e56f00"/>
    </linearGradient>
  </defs>
  <rect width="512" height="512" rx="112" fill="#ff8000"/>
  <rect x="96" y="152" width="320" height="272" rx="64" fill="#fff"/>
  <path d="M176 152c0-52 36-88 80-88s80 36 80 88" fill="none" stroke="#fff" stroke-width="40" stroke-linecap="round"/>
  <path d="M196 228h65.6c34.8 0 58.8 20.4 58.8 49.2 0 20-11.6 35.6-30.8 42.8 23.6 7.6 38.8 24.8 38.8 48.4 0 32.4-26.4 55.6-66.8 55.6H196V228zm42.8 74.8h22.8c17.6 0 27.6-8.8 27.6-22.4s-10-22-27.6-22h-22.8v44.4zm0 89.6h26c20.4 0 32.4-10 32.4-25.6s-12-25.2-32.4-25.2h-26v50.8z" fill="#ff8000"/>
</svg>
