<?xml version="1.0" encoding="UTF-8"?>
<svg xmlns="http://www.w3.org/2000/svg" viewBox="0 0 64 64" role="img" aria-label="BoonBuy Finds">
  <defs>
    <linearGradient id="bag" x1="12" y1="8" x2="52" y2="58" gradientUnits="userSpaceOnUse">
      <stop offset="0%" stop-color="#ff9a3d"/>
      <stop offset="55%" stop-color="#ff8000"/>
      <stop offset="100%" stop-color="#e56f00"/>
    </linearGradient>
  </defs>
  <rect width="64" height="64" rx="14" fill="#ff8000"/>
  <rect x="12" y="19" width="40" height="34" rx="8" fill="#fff"/>
  <path d="M22 19c0-6.5 4.5-11 10-11s10 4.5 10 11" fill="none" stroke="#fff" stroke-width="4" stroke-linecap="round"/>
  <path d="M24.5 28.5h8.2c4.35 0 7.35 2.55 7.35 6.15 0 2.5-1.45 4.45-3.85 5.35 2.95.95 4.85 3.1 4.85 6.05 0 4.05-3.3 6.95-8.35 6.95h-8.2V28.5zm5.35 9.35h2.85c2.2 0 3.45-1.1 3.45-2.8s-1.25-2.75-3.45-2.75h-2.85v5.55zm0 11.2h3.25c2.55 0 4.05-1.25 4.05-3.2s-1.5-3.15-4.05-3.15h-3.25v6.35z" fill="#ff8000"/>
</svg>
